HIERARCHY
ROOT joint_Root
{
	OFFSET 0.0 0.0 0.0
	CHANNELS 6 Xposition Yposition Zposition Zrotation Xrotation Yrotation 
	JOINT Hips
	{
		OFFSET -17.1583 93.1646 452.98
		CHANNELS 6 Xposition Yposition Zposition Zrotation Xrotation Yrotation 
		JOINT Spine
		{
			OFFSET 15.7357 0.0 0.0
			CHANNELS 6 Xposition Yposition Zposition Zrotation Xrotation Yrotation 
			JOINT Chest
			{
				OFFSET 8.98455 -0.406207 0.0
				CHANNELS 6 Xposition Yposition Zposition Zrotation Xrotation Yrotation 
				JOINT Neck
				{
					OFFSET 16.3773 0.0 0.0
					CHANNELS 6 Xposition Yposition Zposition Zrotation Xrotation Yrotation 
					JOINT Head
					{
						OFFSET 6.45672 0.0 0.0
						CHANNELS 6 Xposition Yposition Zposition Zrotation Xrotation Yrotation 
						End Site
						{
							OFFSET 0.0 0.0 0.0
						}
					}
				}
				JOINT Shoulder_L
				{
					OFFSET 12.9942 -0.242716 4.98039
					CHANNELS 6 Xposition Yposition Zposition Zrotation Xrotation Yrotation 
					JOINT UpperArm_L
					{
						OFFSET 5.34809 0.0 0.0
						CHANNELS 6 Xposition Yposition Zposition Zrotation Xrotation Yrotation 
						JOINT LowerArm_L
						{
							OFFSET 24.3286 1.87007e-05 0.0
							CHANNELS 6 Xposition Yposition Zposition Zrotation Xrotation Yrotation 
							JOINT Hand_L
							{
								OFFSET 22.2916 0.0 0.0
								CHANNELS 6 Xposition Yposition Zposition Zrotation Xrotation Yrotation 
								End Site
								{
									OFFSET 0.0 0.0 0.0
								}
							}
						}
					}
				}
				JOINT Shoulder_R
				{
					OFFSET 12.9945 -0.242716 -4.98039
					CHANNELS 6 Xposition Yposition Zposition Zrotation Xrotation Yrotation 
					JOINT UpperArm_R
					{
						OFFSET -5.34813 0.0 0.0
						CHANNELS 6 Xposition Yposition Zposition Zrotation Xrotation Yrotation 
						JOINT LowerArm_R
						{
							OFFSET -24.3289 0.000322201 0.0
							CHANNELS 6 Xposition Yposition Zposition Zrotation Xrotation Yrotation 
							JOINT Hand_R
							{
								OFFSET -22.2915 -0.000108084 0.0
								CHANNELS 6 Xposition Yposition Zposition Zrotation Xrotation Yrotation 
								End Site
								{
									OFFSET 0.0 0.0 0.0
								}
							}
						}
					}
				}
			}
		}
		JOINT UpperLeg_L
		{
			OFFSET -2.19248 -6.46944 0.0
			CHANNELS 6 Xposition Yposition Zposition Zrotation Xrotation Yrotation 
			JOINT LowerLeg_L
			{
				OFFSET 39.0811 0.0 -1.23785e-05
				CHANNELS 6 Xposition Yposition Zposition Zrotation Xrotation Yrotation 
				JOINT Foot_L
				{
					OFFSET 40.9854 0.0 -1.26872e-05
					CHANNELS 6 Xposition Yposition Zposition Zrotation Xrotation Yrotation 
					JOINT Toes_L
					{
						OFFSET 11.7543 0.0 0.0
						CHANNELS 6 Xposition Yposition Zposition Zrotation Xrotation Yrotation 
						End Site
						{
							OFFSET 0.0 0.0 0.0
						}
					}
				}
			}
		}
		JOINT UpperLeg_R
		{
			OFFSET -2.19251 6.46944 0.0
			CHANNELS 6 Xposition Yposition Zposition Zrotation Xrotation Yrotation 
			JOINT LowerLeg_R
			{
				OFFSET -39.0811 -0.00228153 -0.0401928
				CHANNELS 6 Xposition Yposition Zposition Zrotation Xrotation Yrotation 
				JOINT Foot_R
				{
					OFFSET -40.9854 0.0 0.0
					CHANNELS 6 Xposition Yposition Zposition Zrotation Xrotation Yrotation 
					JOINT Toes_R
					{
						OFFSET -11.7543 0.0 0.0
						CHANNELS 6 Xposition Yposition Zposition Zrotation Xrotation Yrotation 
						End Site
						{
							OFFSET 0.0 0.0 0.0
						}
					}
				}
			}
		}
	}
}
MOTION
Frames:	4
Frame Time:	0.0333333
0.000000 0.000000 0.000000 0.000000 0.000000 -0.000000 0.139229 93.259100 -4.007000 87.841900 1.100880 3.110830 15.735700 0.000005 -0.000001 68.787900 86.918800 -67.596600 8.984550 -0.406207 -0.000000 -1.996340 -2.330580 2.341820 16.377300 -0.000001 -0.000001 5.270950 1.622720 -2.198610 6.456720 -0.000001 -0.000000 1.595330 0.927202 -1.633950 12.994200 -0.242716 4.980390 -92.554100 7.497440 -71.126300 5.348090 -0.000007 -0.000001 -73.632000 26.530000 1.408220 24.328600 0.000019 0.000005 12.788600 28.609800 -25.362200 22.291600 -0.000001 0.000005 -3.207800 5.030920 6.654760 12.994500 -0.242716 -4.980390 88.415700 4.816540 -71.768600 -5.348130 -0.000001 -0.000004 -72.031400 22.541300 -2.128270 -24.328900 0.000322 -0.000009 4.144910 10.743000 -21.249600 -22.291500 -0.000108 -0.000004 2.328130 5.323100 -0.585244 -2.192480 -6.469440 -0.000000 -177.861000 3.280790 -2.691250 39.081100 -0.000007 -0.000012 0.143674 -0.423929 18.722300 40.985400 -0.000006 -0.000013 2.547340 9.075060 -68.604500 11.754300 -0.000000 0.000003 0.000633 0.156194 -10.242100 -2.192510 6.469440 -0.000001 -176.743000 5.469400 -179.068000 -39.081100 -0.002282 -0.040193 0.039632 -0.148904 13.700000 -40.985400 0.000008 0.000006 -0.717172 1.200510 -67.638900 -11.754300 -0.000006 -0.000006 -0.008052 0.256125 -6.171420
0.000000 0.000000 0.000000 0.000000 0.000000 -0.000000 0.083176 93.269400 -4.111290 87.805000 1.143940 3.036960 15.735700 0.000005 -0.000001 68.525000 86.906300 -67.333000 8.984550 -0.406207 -0.000000 -1.983120 -2.365930 2.342910 16.377300 -0.000001 -0.000001 5.245200 1.595280 -2.071240 6.456720 -0.000001 -0.000000 1.307630 0.938050 -1.537470 12.994200 -0.242716 4.980390 -92.538700 7.461860 -71.149500 5.348090 -0.000007 -0.000001 -73.685800 26.449900 1.438100 24.328600 0.000019 0.000005 12.851800 28.748100 -25.377300 22.291600 -0.000001 0.000005 -3.306770 5.036710 6.528720 12.994500 -0.242716 -4.980390 88.440900 4.737760 -71.761600 -5.348130 -0.000001 -0.000004 -71.714400 22.031200 -2.211480 -24.328900 0.000322 -0.000009 4.226380 10.645400 -21.808100 -22.291500 -0.000108 -0.000004 2.544960 5.322930 -0.580203 -2.192480 -6.469440 -0.000000 -177.782000 3.334210 -2.851840 39.081100 -0.000007 -0.000012 0.144438 -0.425571 18.747300 40.985400 -0.000006 -0.000013 2.491790 9.068140 -68.608600 11.754300 -0.000000 0.000003 0.000594 0.156951 -10.211400 -2.192510 6.469440 -0.000001 -176.656000 5.433840 -179.206000 -39.081100 -0.002282 -0.040193 0.039627 -0.149247 13.668000 -40.985400 0.000008 0.000006 -0.763166 1.157980 -67.594400 -11.754300 -0.000006 -0.000006 -0.008184 0.257199 -6.127560
0.000000 0.000000 0.000000 0.000000 0.000000 -0.000000 0.035761 93.278600 -4.183100 87.790800 1.172950 3.002020 15.735700 0.000005 -0.000001 68.392400 86.876500 -67.207700 8.984550 -0.406207 -0.000000 -1.932620 -2.400120 2.328800 16.377300 -0.000001 -0.000001 5.182790 1.530960 -1.960880 6.456720 -0.000001 -0.000000 0.998193 0.896151 -1.336970 12.994200 -0.242716 4.980390 -92.519100 7.406490 -71.156100 5.348090 -0.000007 -0.000001 -73.731800 26.549900 1.431610 24.328600 0.000019 0.000005 12.826700 28.736100 -25.341100 22.291600 -0.000001 0.000005 -3.284620 5.039040 6.477730 12.994500 -0.242716 -4.980390 88.474500 4.623120 -71.716100 -5.348130 -0.000001 -0.000004 -71.299100 21.621600 -2.400700 -24.328900 0.000322 -0.000009 4.293220 10.478000 -22.436000 -22.291500 -0.000108 -0.000004 2.536300 5.326300 -0.677747 -2.192480 -6.469440 -0.000000 -177.740000 3.461170 -2.937550 39.081100 -0.000007 -0.000012 0.144262 -0.425407 18.732800 40.985400 -0.000006 -0.000013 2.428660 8.987260 -68.568200 11.754300 -0.000000 0.000003 0.000591 0.156993 -10.209700 -2.192510 6.469440 -0.000001 -176.621000 5.558520 -179.274000 -39.081100 -0.002282 -0.040193 0.038172 -0.143669 13.631000 -40.985400 0.000008 0.000006 -0.852857 1.211300 -67.500000 -11.754300 -0.000006 -0.000006 -0.008109 0.256589 -6.152450
0.000000 0.000000 0.000000 0.000000 0.000000 -0.000000 -0.027820 93.286400 -4.299660 87.754300 1.216150 2.895640 15.735700 0.000005 -0.000001 68.080000 86.864100 -66.894200 8.984550 -0.406207 -0.000000 -1.921930 -2.440930 2.330490 16.377300 -0.000001 -0.000001 5.010710 1.437040 -1.765380 6.456720 -0.000001 -0.000000 0.776435 0.848629 -1.183680 12.994200 -0.242716 4.980390 -92.492900 7.349630 -71.205300 5.348090 -0.000007 -0.000001 -73.773300 26.683900 1.462770 24.328600 0.000019 0.000005 12.774700 28.565500 -25.368800 22.291600 -0.000001 0.000005 -3.244920 5.031560 6.640870 12.994500 -0.242716 -4.980390 88.515400 4.497640 -71.711600 -5.348130 -0.000001 -0.000004 -70.846100 20.986600 -2.569230 -24.328900 0.000322 -0.000009 4.327140 10.140000 -23.262800 -22.291500 -0.000108 -0.000004 2.242790 5.320250 -0.502781 -2.192480 -6.469440 -0.000000 -177.643000 3.508700 -3.152690 39.081100 -0.000007 -0.000012 0.145379 -0.427605 18.777400 40.985400 -0.000006 -0.000013 2.363250 9.002060 -68.553100 11.754300 -0.000000 0.000003 0.000583 0.157160 -10.202900 -2.192510 6.469440 -0.000001 -176.507000 5.442600 -179.431000 -39.081100 -0.002282 -0.040193 0.038013 -0.143750 13.563500 -40.985400 0.000008 0.000006 -0.738211 1.105000 -67.433000 -11.754300 -0.000006 -0.000006 -0.008157 0.256974 -6.136750
